<svg xmlns="http://www.w3.org/2000/svg" xmlns:xlink="http://www.w3.org/1999/xlink" width="500" zoomAndPan="magnify" viewBox="100 100 175 174.999991" height="500" preserveAspectRatio="xMidYMid meet" version="1.0"><defs><g/><clipPath id="ab52cc7073"><path d="M 45 98 L 96 98 L 96 237 L 45 237 Z M 45 98 " clip-rule="nonzero"/></clipPath><clipPath id="f74906fa03"><path d="M 29.023438 106.933594 L 89.238281 94.230469 L 117.636719 228.839844 L 57.417969 241.542969 Z M 29.023438 106.933594 " clip-rule="nonzero"/></clipPath><clipPath id="af36d1b563"><path d="M 29.023438 106.933594 L 89.238281 94.230469 L 117.636719 228.839844 L 57.417969 241.542969 Z M 29.023438 106.933594 " clip-rule="nonzero"/></clipPath><clipPath id="81ea350001"><path d="M 84 110 L 351 110 L 351 262 L 84 262 Z M 84 110 " clip-rule="nonzero"/></clipPath><clipPath id="5b2b265711"><path d="M 88.046875 103.816406 L 355.832031 111.59375 L 351.46875 261.769531 L 83.683594 253.992188 Z M 88.046875 103.816406 " clip-rule="nonzero"/></clipPath><clipPath id="94d041855e"><path d="M 88.046875 103.816406 L 355.832031 111.59375 L 351.46875 261.769531 L 83.683594 253.992188 Z M 88.046875 103.816406 " clip-rule="nonzero"/></clipPath></defs><g clip-path="url(#ab52cc7073)"><g clip-path="url(#f74906fa03)"><g clip-path="url(#af36d1b563)"><path fill="#3516c8" d="M 75.117188 131.027344 C 75.046875 130.992188 74.996094 130.929688 74.96875 130.847656 C 74.871094 130.578125 74.800781 130.300781 74.730469 130.027344 C 73.417969 127.070312 71.597656 124.347656 70.351562 121.363281 C 68.359375 116.589844 67.617188 110.921875 68.121094 105.792969 C 68.289062 104.074219 68.394531 102.363281 68.699219 100.652344 C 68.742188 100.378906 68.765625 99.894531 68.824219 99.46875 C 68.878906 99.117188 68.976562 98.808594 69.113281 98.617188 C 69.199219 98.496094 69.296875 98.488281 69.371094 98.472656 C 69.46875 98.464844 69.550781 98.496094 69.632812 98.582031 C 69.664062 98.613281 69.699219 98.667969 69.71875 98.75 C 69.730469 98.800781 69.734375 98.886719 69.746094 98.933594 C 69.796875 99.238281 69.847656 99.542969 69.898438 99.84375 C 70.019531 100.589844 70.1875 101.332031 70.402344 102.054688 C 71.046875 104.144531 71.714844 106.304688 72.660156 108.285156 C 74.652344 112.480469 75.617188 117.222656 75.539062 121.867188 C 75.5 124.003906 75.042969 126.023438 75.125 128.070312 L 75.125 128.082031 C 75.941406 130.328125 76.648438 132.617188 77.203125 134.953125 C 77.71875 137.148438 78.085938 139.371094 78.234375 141.628906 C 78.296875 142.449219 78.316406 143.261719 78.3125 144.082031 C 78.714844 142.824219 79.160156 141.597656 79.640625 140.414062 C 80.269531 138.875 80.851562 137.214844 81.761719 135.804688 C 83.25 133.488281 85.140625 131.65625 87 129.679688 C 87.792969 128.84375 88.726562 128.144531 89.550781 127.339844 C 90.460938 126.457031 91.296875 125.476562 92.21875 124.589844 C 92.78125 124.042969 93.316406 123.476562 93.867188 122.921875 C 94.03125 122.75 94.1875 122.589844 94.335938 122.40625 C 94.394531 122.332031 94.460938 122.167969 94.519531 122.089844 C 94.582031 122.015625 94.644531 121.964844 94.691406 121.941406 C 94.792969 121.894531 94.882812 121.902344 94.96875 121.945312 C 95.039062 121.980469 95.125 122.039062 95.167969 122.179688 C 95.242188 122.40625 95.203125 122.703125 95.109375 123.023438 C 94.996094 123.386719 94.804688 123.792969 94.71875 124.039062 C 94.246094 125.507812 93.871094 127.007812 93.335938 128.457031 C 91.878906 132.347656 90.035156 136.070312 86.914062 138.933594 C 85.050781 140.644531 82.964844 141.867188 81.246094 143.375 C 79.695312 144.730469 78.449219 146.328125 77.964844 148.757812 C 77.476562 152.15625 76.507812 155.320312 75.332031 158.574219 C 73.21875 164.417969 70.398438 170.558594 68.5 179.023438 C 67.828125 181.996094 67.425781 184.964844 67.265625 187.902344 C 67.292969 187.808594 67.324219 187.714844 67.355469 187.621094 C 68.3125 184.828125 70.066406 181.023438 72.113281 178.867188 C 74.546875 176.328125 78.621094 173.933594 81.425781 171.667969 C 82.566406 170.75 83.503906 169.695312 84.421875 168.570312 C 84.621094 168.328125 84.863281 167.921875 85.132812 167.578125 C 85.339844 167.308594 85.566406 167.082031 85.792969 166.960938 C 85.941406 166.878906 86.046875 166.90625 86.113281 166.929688 C 86.222656 166.96875 86.304688 167.054688 86.324219 167.210938 C 86.335938 167.261719 86.328125 167.339844 86.292969 167.421875 C 86.25 167.519531 86.148438 167.691406 86.117188 167.785156 C 86.011719 168.058594 85.90625 168.320312 85.8125 168.59375 C 85.515625 169.398438 85.328125 170.242188 85.085938 171.058594 C 84.992188 171.382812 84.882812 171.707031 84.785156 172.015625 C 84.832031 172.070312 84.851562 172.152344 84.800781 172.214844 C 84.726562 172.332031 84.660156 172.445312 84.585938 172.5625 C 84.136719 173.777344 83.625 174.929688 83.023438 176.074219 C 83.074219 176.125 83.089844 176.210938 83.039062 176.273438 C 82.726562 176.804688 82.394531 177.328125 82.03125 177.816406 C 81.921875 178.003906 81.800781 178.207031 81.675781 178.398438 C 79.402344 182.097656 76.289062 184.515625 72.917969 187.152344 C 71.75 188.0625 70.472656 188.925781 69.40625 189.957031 C 68.386719 190.949219 67.570312 192.09375 67.28125 193.597656 C 67.261719 193.730469 67.238281 193.871094 67.230469 194 C 67.613281 200.953125 69.246094 207.804688 71.78125 214.503906 C 71.003906 208.792969 73.261719 201.960938 75.808594 197.222656 C 75.863281 197.125 75.917969 197.023438 75.972656 196.925781 C 76.992188 195.023438 78.253906 193.359375 79.71875 191.78125 C 79.808594 191.671875 79.941406 191.46875 80.097656 191.296875 C 80.226562 191.144531 80.359375 191.003906 80.496094 190.9375 C 80.621094 190.875 80.742188 190.847656 80.863281 190.871094 C 80.980469 190.898438 81.105469 190.960938 81.210938 191.101562 C 82.484375 192.894531 82.628906 195.910156 82.125 199.136719 C 81.394531 203.894531 79.285156 209.109375 77.597656 211.414062 C 76.816406 212.484375 75.578125 213.414062 74.5625 214.445312 C 73.734375 215.289062 73.058594 216.199219 72.972656 217.347656 C 75.683594 223.105469 81.335938 231.710938 85.769531 234.839844 C 85.992188 234.996094 86.042969 235.296875 85.890625 235.519531 C 85.761719 235.699219 85.550781 235.765625 85.351562 235.710938 C 85.332031 235.738281 85.296875 235.746094 85.273438 235.761719 C 85.316406 235.792969 85.347656 235.824219 85.394531 235.851562 C 85.46875 235.910156 85.476562 236.007812 85.429688 236.082031 C 85.371094 236.15625 85.269531 236.167969 85.199219 236.117188 C 84.691406 235.746094 84.238281 235.328125 83.78125 234.894531 C 83.734375 234.855469 83.722656 234.78125 83.746094 234.726562 C 83.421875 234.441406 83.097656 234.148438 82.804688 233.84375 C 82.742188 233.78125 82.742188 233.667969 82.808594 233.617188 C 82.820312 233.613281 82.816406 233.601562 82.828125 233.597656 C 81.007812 231.769531 79.101562 229.351562 77.355469 226.800781 C 77.277344 226.78125 77.203125 226.722656 77.160156 226.640625 C 76.9375 226.238281 76.714844 225.84375 76.472656 225.464844 C 76.402344 225.367188 76.339844 225.253906 76.269531 225.15625 C 75.898438 224.605469 75.511719 224.070312 75.085938 223.558594 C 74.519531 223.375 73.910156 223.339844 73.304688 223.339844 C 72.628906 223.347656 71.953125 223.375 71.296875 223.300781 C 66.097656 222.699219 61.941406 221.535156 57.785156 218.171875 C 57.3125 217.78125 54.707031 215.324219 53.949219 214.0625 C 53.777344 213.785156 53.6875 213.539062 53.691406 213.375 C 53.683594 213.226562 53.734375 213.113281 53.816406 213.023438 C 53.949219 212.867188 54.164062 212.761719 54.464844 212.695312 C 54.800781 212.625 55.269531 212.628906 55.804688 212.664062 C 57.753906 212.832031 60.621094 213.664062 61.257812 213.878906 C 65.886719 215.484375 70.464844 217.863281 73.960938 221.316406 L 73.941406 221.292969 C 73.480469 220.472656 73.027344 219.636719 72.609375 218.78125 C 72.261719 218.089844 71.921875 217.378906 71.609375 216.667969 C 71.507812 216.4375 71.410156 216.207031 71.308594 215.960938 C 71.257812 215.847656 71.222656 215.730469 71.167969 215.601562 C 71.113281 215.460938 71.058594 215.324219 71.003906 215.183594 C 70.835938 214.742188 70.667969 214.296875 70.515625 213.867188 C 70.148438 212.847656 69.792969 211.816406 69.460938 210.777344 C 69.304688 210.269531 69.144531 209.761719 68.992188 209.265625 C 68.921875 209.128906 68.855469 208.992188 68.789062 208.84375 C 68.765625 208.851562 68.75 208.839844 68.722656 208.832031 C 59.628906 206.75 51.523438 201.136719 48.039062 192.261719 C 47.84375 191.75 46.445312 188.457031 45.933594 186.867188 C 45.785156 186.394531 45.726562 186.054688 45.746094 185.914062 C 45.769531 185.730469 45.863281 185.636719 45.980469 185.585938 C 46.070312 185.542969 46.179688 185.519531 46.3125 185.566406 C 46.410156 185.597656 46.535156 185.660156 46.667969 185.746094 C 46.796875 185.832031 46.933594 185.941406 47.03125 185.980469 C 47.6875 186.285156 48.308594 186.617188 48.984375 186.839844 C 51.121094 187.546875 52.902344 188.355469 54.75 189.652344 C 61.488281 194.394531 68.117188 206.078125 68.117188 206.078125 C 66.320312 198.882812 65.667969 191.550781 66.578125 184.121094 C 66.578125 184.109375 66.578125 184.109375 66.574219 184.097656 C 66.132812 181.941406 64.871094 180.015625 63.363281 178.234375 C 61.820312 176.421875 60.035156 174.746094 58.570312 173.167969 C 55.996094 170.390625 54.042969 167.152344 52.867188 163.550781 C 52.21875 161.550781 51.839844 159.515625 51.597656 157.414062 C 51.527344 156.789062 51.472656 156.171875 51.417969 155.542969 C 51.386719 155.285156 51.371094 155.023438 51.351562 154.761719 C 51.351562 154.75 51.300781 154.570312 51.285156 154.5 C 51.277344 154.402344 51.289062 154.335938 51.3125 154.28125 C 51.347656 154.199219 51.410156 154.132812 51.476562 154.105469 C 51.546875 154.066406 51.640625 154.046875 51.761719 154.085938 C 51.914062 154.140625 52.082031 154.28125 52.238281 154.488281 C 52.472656 154.816406 52.695312 155.335938 52.851562 155.539062 C 53.554688 156.488281 54.394531 157.441406 55.257812 158.253906 C 56.871094 159.75 58.417969 160.996094 59.628906 162.867188 C 62.398438 167.164062 63.183594 171.957031 64.648438 176.753906 C 65.222656 178.648438 66.109375 180.398438 66.859375 182.226562 C 67.039062 181.058594 67.273438 179.886719 67.527344 178.714844 C 68.902344 172.585938 70.757812 167.667969 72.484375 163.199219 C 72.476562 163.164062 72.464844 163.117188 72.46875 163.078125 C 72.617188 160.316406 71.683594 157.921875 70.355469 155.671875 C 69 153.378906 67.242188 151.246094 65.777344 149.078125 C 63.707031 146.003906 62.59375 141.722656 62.6875 138.054688 C 62.714844 136.941406 62.773438 134.765625 63.175781 133.6875 C 63.179688 133.597656 63.175781 133.523438 63.183594 133.433594 C 63.191406 133.34375 63.265625 133.277344 63.351562 133.269531 C 63.441406 133.277344 63.507812 133.351562 63.511719 133.4375 C 63.585938 133.4375 63.65625 133.472656 63.730469 133.53125 C 63.765625 133.5625 63.8125 133.613281 63.84375 133.707031 C 63.875 133.789062 63.898438 133.960938 63.941406 134.039062 C 64.042969 134.28125 64.175781 134.507812 64.289062 134.734375 C 64.632812 135.417969 65.050781 136.019531 65.484375 136.644531 C 66.789062 138.535156 68.484375 140.078125 69.4375 142.203125 C 71.164062 146.089844 70.941406 150.175781 71.507812 154.285156 C 71.835938 156.679688 72.796875 158.90625 73.21875 161.269531 C 73.628906 160.214844 74.023438 159.175781 74.386719 158.15625 C 77.535156 149.464844 79.140625 141.453125 73.828125 127.414062 Z M 73.90625 222.496094 C 73.90625 222.496094 73.898438 222.511719 73.898438 222.511719 C 73.925781 222.519531 73.9375 222.515625 73.964844 222.523438 Z M 57.28125 216.796875 C 57.734375 217.226562 58.109375 217.5625 58.25 217.699219 C 62.300781 220.96875 66.359375 222.089844 71.417969 222.683594 C 71.609375 222.703125 71.8125 222.710938 72.015625 222.71875 C 71.703125 222.660156 71.386719 222.589844 71.082031 222.515625 C 70 222.277344 68.921875 222.0625 67.859375 221.734375 C 64.804688 220.792969 61.597656 219.660156 58.863281 217.972656 C 58.296875 217.625 57.792969 217.191406 57.28125 216.796875 Z M 56.070312 215 C 56.953125 215.65625 57.90625 216.234375 58.859375 216.765625 C 61.082031 218.007812 63.410156 218.960938 65.777344 219.921875 C 68.046875 220.839844 70.496094 221.894531 72.960938 222.359375 C 72.261719 222.152344 71.570312 221.847656 70.890625 221.625 C 69.742188 221.238281 68.585938 220.890625 67.457031 220.421875 C 65.992188 219.8125 64.574219 219.042969 63.15625 218.347656 C 61.460938 217.523438 59.777344 216.644531 58.0625 215.851562 C 57.414062 215.574219 56.707031 215.332031 56.070312 215 Z M 73.445312 221.738281 C 70.027344 218.410156 65.578125 216.113281 61.070312 214.550781 C 60.460938 214.339844 57.671875 213.53125 55.777344 213.363281 C 55.328125 213.320312 54.921875 213.316406 54.632812 213.378906 C 54.609375 213.382812 54.585938 213.386719 54.5625 213.394531 C 54.929688 213.414062 55.296875 213.527344 55.667969 213.574219 C 56.082031 213.625 56.519531 213.609375 56.9375 213.683594 C 58.09375 213.90625 59.210938 214.4375 60.3125 214.835938 C 61.160156 215.148438 62.027344 215.390625 62.847656 215.746094 C 64.230469 216.347656 65.539062 217.117188 66.863281 217.84375 C 68.328125 218.652344 69.8125 219.433594 71.265625 220.300781 C 72.019531 220.757812 72.714844 221.265625 73.445312 221.738281 Z M 54.722656 213.738281 C 54.796875 213.796875 54.886719 213.851562 54.957031 213.902344 C 55.625 214.136719 56.324219 214.292969 56.992188 214.527344 C 57.65625 214.765625 58.289062 215.085938 58.949219 215.347656 C 59.664062 215.636719 60.40625 215.871094 61.113281 216.175781 C 62.664062 216.855469 64.164062 217.695312 65.691406 218.429688 C 67.984375 219.53125 70.320312 220.585938 72.660156 221.601562 C 72.148438 221.257812 71.632812 220.902344 71.101562 220.585938 C 69.664062 219.730469 68.175781 218.949219 66.710938 218.140625 C 65.402344 217.421875 64.105469 216.652344 62.722656 216.0625 C 61.90625 215.707031 61.039062 215.460938 60.207031 215.160156 C 59.128906 214.757812 58.023438 214.234375 56.882812 214.023438 C 56.476562 213.945312 56.054688 213.960938 55.640625 213.910156 C 55.328125 213.871094 55.023438 213.785156 54.722656 213.738281 Z M 55.9375 214.550781 C 56.640625 214.957031 57.464844 215.222656 58.203125 215.558594 C 59.917969 216.351562 61.597656 217.230469 63.296875 218.054688 C 64.710938 218.75 66.121094 219.523438 67.582031 220.121094 C 68.695312 220.578125 69.839844 220.925781 70.988281 221.300781 C 71.339844 221.417969 71.683594 221.558594 72.039062 221.683594 C 69.851562 220.738281 67.679688 219.746094 65.539062 218.726562 C 64.015625 218.003906 62.53125 217.171875 60.964844 216.496094 C 60.261719 216.191406 59.53125 215.957031 58.816406 215.667969 C 58.167969 215.398438 57.535156 215.082031 56.871094 214.855469 C 56.570312 214.742188 56.25 214.648438 55.9375 214.550781 Z M 56.191406 215.503906 C 56.558594 215.816406 56.9375 216.125 57.324219 216.410156 C 57.894531 216.84375 58.433594 217.320312 59.042969 217.695312 C 61.746094 219.363281 64.929688 220.492188 67.957031 221.425781 C 68.695312 221.648438 69.4375 221.816406 70.175781 221.988281 C 68.621094 221.472656 67.089844 220.839844 65.644531 220.25 C 63.28125 219.292969 60.933594 218.3125 58.699219 217.074219 C 57.839844 216.589844 56.988281 216.078125 56.191406 215.503906 Z M 80.390625 192.507812 C 79.683594 194.054688 79.246094 195.804688 78.601562 197.328125 C 76.164062 203.074219 74.15625 209.070312 73.117188 215.242188 C 75.011719 210.4375 76.488281 205.394531 78.125 200.507812 C 79.03125 197.8125 80.148438 195.3125 80.390625 192.507812 Z M 76.867188 196.8125 C 76.785156 196.953125 76.691406 197.113281 76.613281 197.265625 C 76.558594 197.367188 76.503906 197.464844 76.449219 197.566406 C 73.863281 202.363281 71.566406 209.367188 72.589844 215.0625 C 72.691406 212.976562 73.152344 210.929688 73.484375 208.859375 C 74.140625 204.882812 75.046875 200.578125 76.867188 196.8125 Z M 80.796875 191.691406 C 80.777344 191.722656 80.765625 191.734375 80.746094 191.765625 C 80.671875 194.914062 79.421875 197.644531 78.425781 200.609375 C 76.957031 204.984375 75.628906 209.476562 74 213.808594 C 76.589844 208.734375 79.128906 203.355469 80.113281 197.761719 C 80.492188 195.746094 80.953125 193.746094 80.796875 191.691406 Z M 80 192.566406 C 76.167969 197.007812 74.722656 203.289062 73.824219 208.914062 C 73.550781 210.609375 73.1875 212.28125 73.003906 213.980469 C 74.101562 208.203125 76.011719 202.589844 78.292969 197.191406 C 78.914062 195.726562 79.34375 194.0625 80 192.566406 Z M 81.726562 194.441406 C 81.714844 195.636719 81.488281 196.894531 81.359375 197.941406 C 80.988281 201.136719 78.808594 207.207031 77.078125 210.039062 C 76.441406 211.066406 75.78125 212.0625 75.152344 213.074219 C 75.882812 212.417969 76.613281 211.773438 77.132812 211.058594 C 78.769531 208.800781 80.824219 203.699219 81.542969 199.058594 C 81.789062 197.410156 81.878906 195.816406 81.726562 194.441406 Z M 81.15625 192.570312 C 81.152344 194.335938 80.765625 196.078125 80.453125 197.828125 C 79.515625 203.109375 77.222656 208.210938 74.777344 213.027344 C 75.4375 211.972656 76.125 210.945312 76.78125 209.875 C 78.496094 207.085938 80.648438 201.082031 81.011719 197.910156 C 81.121094 196.996094 81.3125 195.9375 81.367188 194.878906 C 81.425781 194.074219 81.382812 193.28125 81.15625 192.570312 Z M 68.179688 208.042969 C 68.179688 208.042969 68.179688 208.054688 68.179688 208.054688 L 68.21875 208.058594 Z M 49.359375 193.554688 C 49.679688 194.242188 50.03125 194.898438 50.417969 195.546875 C 53.265625 199.074219 58.152344 202.269531 61.449219 204.480469 C 63.53125 205.863281 65.234375 207.316406 67.691406 207.828125 C 62.761719 205.863281 59.023438 201.984375 54.992188 198.671875 C 52.957031 197.023438 50.917969 195.527344 49.359375 193.554688 Z M 47.597656 189.335938 C 48.105469 190.597656 48.609375 191.789062 48.71875 192.066406 L 48.71875 192.082031 C 50.332031 194.710938 52.785156 196.445312 55.203125 198.414062 C 58.894531 201.433594 62.328125 204.9375 66.652344 207.003906 C 64.851562 205.8125 63.035156 204.597656 61.390625 203.234375 C 58.339844 200.707031 55.707031 197.703125 52.921875 194.878906 C 50.90625 192.839844 49.089844 191.398438 47.597656 189.335938 Z M 48.789062 187.511719 C 52.042969 189.996094 54.539062 193.367188 57.25 196.433594 C 60.523438 200.144531 64.070312 203.472656 67.757812 206.761719 C 67.691406 206.621094 67.613281 206.488281 67.53125 206.34375 C 67.09375 206.058594 66.660156 205.683594 66.242188 205.253906 C 65.167969 204.148438 64.175781 202.734375 63.378906 201.921875 C 60.769531 199.289062 58.230469 196.667969 55.878906 193.804688 C 54.214844 191.765625 52.824219 189.714844 50.722656 188.222656 C 50.117188 187.972656 49.488281 187.742188 48.839844 187.523438 C 48.8125 187.519531 48.800781 187.519531 48.789062 187.511719 Z M 47.210938 186.835938 C 52.996094 193.328125 58.449219 200.09375 65.472656 205.292969 C 66.082031 205.742188 66.644531 206.253906 67.222656 206.734375 C 63.640625 203.527344 60.195312 200.265625 56.992188 196.652344 C 53.96875 193.226562 51.21875 189.4375 47.378906 186.914062 C 47.324219 186.890625 47.265625 186.863281 47.210938 186.835938 Z M 51.589844 197.335938 C 54.773438 201.75 59.351562 204.960938 64.492188 206.90625 C 63.402344 206.28125 62.386719 205.515625 61.257812 204.757812 C 58.441406 202.863281 54.472656 200.265625 51.589844 197.335938 Z M 46.589844 186.640625 C 46.660156 186.851562 46.738281 187.101562 46.835938 187.382812 C 46.890625 187.523438 46.933594 187.664062 46.988281 187.804688 C 48.605469 190.644531 50.722656 192.210938 53.136719 194.65625 C 55.910156 197.46875 58.539062 200.464844 61.578125 202.992188 C 63.054688 204.214844 64.671875 205.308594 66.28125 206.390625 C 65.945312 206.109375 65.609375 205.828125 65.253906 205.5625 C 57.851562 200.054688 52.171875 192.8125 46 185.984375 Z M 51.949219 188.78125 C 53.539062 190.183594 54.742188 191.890625 56.136719 193.609375 C 58.480469 196.476562 61.015625 199.085938 63.609375 201.710938 C 64.410156 202.523438 65.398438 203.9375 66.476562 205.042969 C 66.667969 205.242188 66.859375 205.425781 67.058594 205.597656 C 65.636719 203.621094 63.996094 201.816406 62.476562 199.921875 C 59.476562 196.140625 56.546875 192.378906 52.871094 189.265625 C 52.566406 189.089844 52.257812 188.929688 51.949219 188.78125 Z M 54.628906 190.394531 C 57.628906 193.21875 60.148438 196.449219 62.742188 199.691406 C 63.832031 201.046875 64.980469 202.363281 66.074219 203.730469 C 63.070312 198.625 59.328125 193.765625 54.628906 190.394531 Z M 84.296875 170.484375 C 82.558594 172.625 80.167969 174.160156 78.171875 176.039062 C 74.464844 179.515625 71.335938 183.585938 69.046875 188.132812 C 68.617188 189.003906 68.03125 189.867188 67.578125 190.769531 C 67.566406 190.820312 67.535156 190.867188 67.523438 190.917969 C 67.605469 190.777344 67.691406 190.644531 67.773438 190.5 C 68.394531 189.453125 69.0625 188.441406 69.730469 187.421875 C 72.375 183.390625 75.390625 179.785156 78.792969 176.363281 C 80.621094 174.519531 82.898438 172.742188 84.296875 170.484375 Z M 74.183594 177.875 C 73.613281 178.347656 73.089844 178.835938 72.621094 179.3125 C 70.636719 181.40625 68.9375 185.097656 68.003906 187.824219 C 67.769531 188.503906 67.539062 189.203125 67.339844 189.9375 C 67.78125 188.738281 68.339844 187.578125 68.855469 186.4375 C 70.214844 183.46875 71.964844 180.421875 74.183594 177.875 Z M 82.507812 175.71875 C 81.816406 176.667969 81.078125 177.589844 80.308594 178.472656 C 78.394531 180.675781 76.074219 182.609375 73.953125 184.605469 C 72.632812 185.851562 71.363281 187.113281 70.167969 188.488281 C 70.863281 187.898438 71.554688 187.3125 72.214844 186.683594 C 73.804688 185.152344 75.277344 183.496094 76.917969 182.015625 C 78.027344 181.015625 79.304688 180.21875 80.425781 179.203125 C 80.6875 178.832031 80.9375 178.464844 81.179688 178.0625 C 81.65625 177.28125 82.105469 176.496094 82.507812 175.71875 Z M 83.953125 172.480469 C 83.730469 172.867188 83.496094 173.246094 83.238281 173.574219 C 82.484375 174.589844 81.570312 175.511719 80.742188 176.46875 C 78.289062 179.324219 75.667969 182.003906 73.027344 184.6875 C 71.992188 185.75 71.042969 186.84375 70.136719 187.988281 C 71.277344 186.71875 72.464844 185.535156 73.710938 184.355469 C 75.832031 182.359375 78.128906 180.429688 80.046875 178.238281 C 81.242188 176.867188 82.351562 175.398438 83.378906 173.875 C 83.585938 173.425781 83.777344 172.960938 83.953125 172.480469 Z M 84.296875 171.074219 C 82.871094 173.148438 80.75 174.84375 79.027344 176.578125 C 75.644531 179.984375 72.636719 183.5625 70.015625 187.585938 C 69.941406 187.703125 69.863281 187.820312 69.785156 187.925781 C 70.726562 186.71875 71.714844 185.566406 72.800781 184.457031 C 75.429688 181.765625 78.050781 179.097656 80.507812 176.253906 C 81.324219 175.300781 82.242188 174.390625 82.984375 173.378906 C 83.472656 172.707031 83.917969 171.910156 84.296875 171.074219 Z M 77.996094 175.019531 C 77.339844 175.488281 76.671875 175.957031 76.027344 176.429688 C 73.054688 179.222656 70.828125 182.960938 69.179688 186.554688 C 69.070312 186.804688 68.957031 187.042969 68.835938 187.296875 C 68.90625 187.15625 68.964844 187.027344 69.039062 186.898438 C 71.25 182.535156 74.410156 178.417969 77.996094 175.019531 Z M 79.503906 180.390625 C 78.707031 181.011719 77.882812 181.585938 77.132812 182.261719 C 75.765625 183.480469 74.519531 184.839844 73.230469 186.128906 C 75.53125 184.324219 77.691406 182.585938 79.503906 180.390625 Z M 84.816406 169.191406 C 84.175781 169.96875 83.515625 170.710938 82.792969 171.394531 C 82.792969 171.394531 82.804688 171.402344 82.804688 171.402344 C 82.859375 171.480469 82.855469 171.582031 82.777344 171.632812 C 81.46875 172.691406 80.054688 173.566406 78.8125 174.710938 C 75.972656 177.296875 73.386719 180.359375 71.285156 183.644531 C 73.195312 180.777344 75.445312 178.136719 77.96875 175.78125 C 80.183594 173.703125 82.902344 172.035156 84.640625 169.480469 C 84.695312 169.394531 84.75 169.292969 84.816406 169.191406 Z M 52.359375 156.023438 C 52.554688 156.585938 52.773438 157.140625 53.058594 157.660156 C 53.464844 158.394531 54.046875 159 54.40625 159.753906 C 56.496094 164.171875 58.652344 168.609375 61.101562 172.835938 C 61.839844 174.113281 62.652344 175.339844 63.476562 176.5625 C 63.585938 176.726562 63.710938 176.902344 63.832031 177.066406 C 63.328125 176.214844 62.988281 175.269531 62.5625 174.390625 C 61.667969 172.527344 60.742188 170.699219 59.84375 168.835938 C 58.367188 165.761719 56.878906 162.644531 55.09375 159.734375 C 54.402344 158.609375 53.503906 157.566406 52.726562 156.5 C 52.589844 156.324219 52.480469 156.171875 52.359375 156.023438 Z M 54.929688 158.902344 C 55.078125 159.121094 55.222656 159.332031 55.359375 159.554688 C 57.144531 162.472656 58.636719 165.605469 60.128906 168.6875 C 61.023438 170.550781 61.949219 172.378906 62.847656 174.242188 C 63.066406 174.6875 63.253906 175.160156 63.464844 175.621094 C 63.128906 174.683594 62.816406 173.746094 62.4375 172.832031 C 61.472656 170.53125 60.3125 168.308594 59.324219 166.015625 C 58.507812 164.109375 57.753906 161.789062 56.347656 160.1875 C 55.878906 159.757812 55.414062 159.339844 54.929688 158.902344 Z M 53.753906 164.007812 C 54.914062 167.285156 56.742188 170.234375 59.105469 172.792969 C 60.003906 173.757812 61.003906 174.742188 62 175.777344 C 61.558594 175.167969 61.113281 174.558594 60.660156 173.960938 C 59.195312 172.082031 57.765625 170.191406 56.394531 168.230469 C 55.425781 166.863281 54.515625 165.46875 53.753906 164.007812 Z M 52.222656 156.617188 L 52.238281 156.816406 C 52.335938 157.335938 52.460938 157.863281 52.617188 158.371094 C 52.992188 159.550781 53.609375 160.566406 54.140625 161.660156 C 54.839844 163.058594 55.472656 164.511719 56.253906 165.882812 C 56.910156 167.027344 57.683594 168.082031 58.355469 169.226562 C 59.441406 171.097656 60.605469 172.914062 61.832031 174.683594 C 61.476562 174.128906 61.144531 173.570312 60.8125 172.996094 C 58.355469 168.757812 56.195312 164.308594 54.097656 159.894531 C 53.738281 159.152344 53.15625 158.546875 52.765625 157.824219 C 52.542969 157.429688 52.367188 157.015625 52.214844 156.59375 Z M 57.628906 161.441406 C 58.445312 162.851562 59.023438 164.46875 59.621094 165.875 C 60.609375 168.171875 61.769531 170.390625 62.734375 172.691406 C 62.859375 172.980469 62.96875 173.273438 63.082031 173.574219 C 62.132812 170.015625 61.195312 166.527344 59.121094 163.316406 C 58.671875 162.617188 58.164062 162.007812 57.628906 161.441406 Z M 52.539062 159.140625 C 52.683594 160.003906 52.851562 160.863281 53.058594 161.710938 C 53.9375 163.980469 55.238281 166.03125 56.660156 168.046875 C 57.792969 169.660156 58.949219 171.214844 60.148438 172.773438 C 59.421875 171.667969 58.734375 170.542969 58.0625 169.386719 C 57.394531 168.257812 56.617188 167.1875 55.960938 166.042969 C 55.179688 164.675781 54.535156 163.226562 53.847656 161.808594 C 53.402344 160.910156 52.910156 160.058594 52.539062 159.140625 Z M 63.570312 141.164062 C 63.949219 143.863281 64.921875 146.628906 66.371094 148.777344 C 67.488281 150.441406 68.777344 152.082031 69.929688 153.789062 C 69.796875 153.511719 69.65625 153.253906 69.503906 153.007812 C 67.339844 149.503906 64.890625 145.816406 63.746094 141.820312 C 63.6875 141.605469 63.625 141.378906 63.570312 141.164062 Z M 67.097656 139.765625 C 67.496094 140.8125 67.71875 141.9375 67.980469 143.050781 C 68.320312 144.539062 68.761719 146.03125 69.003906 147.542969 C 69.140625 148.378906 69.261719 149.246094 69.417969 150.097656 C 69.757812 151.054688 70.101562 152.027344 70.453125 152.984375 C 70.449219 152.972656 70.445312 152.949219 70.441406 152.9375 C 70.078125 151.265625 69.984375 149.574219 69.742188 147.886719 C 69.402344 145.433594 68.84375 142.90625 67.777344 140.652344 C 67.546875 140.351562 67.324219 140.058594 67.097656 139.765625 Z M 68.886719 142.570312 C 69.460938 144.285156 69.8125 146.074219 70.058594 147.835938 C 70.273438 149.386719 70.375 150.949219 70.675781 152.484375 C 70.367188 149.117188 70.300781 145.769531 68.886719 142.570312 Z M 63.417969 137.054688 C 63.402344 137.398438 63.390625 137.703125 63.386719 137.980469 C 63.503906 139.242188 63.703125 140.480469 64.054688 141.742188 C 65.183594 145.65625 67.554688 149.257812 69.6875 152.695312 C 69.621094 152.507812 69.570312 152.316406 69.515625 152.113281 C 69.167969 151.355469 68.792969 150.605469 68.433594 149.851562 C 67.363281 147.648438 66.074219 145.515625 65.164062 143.230469 C 64.390625 141.242188 63.738281 139.164062 63.417969 137.054688 Z M 63.574219 135.160156 L 63.570312 135.199219 C 63.714844 137.914062 64.476562 140.582031 65.476562 143.101562 C 66.371094 145.378906 67.660156 147.496094 68.730469 149.699219 C 68.867188 150 69.015625 150.292969 69.167969 150.589844 C 69.140625 150.457031 69.113281 150.324219 69.097656 150.1875 C 68.015625 147.15625 66.960938 144.121094 65.847656 141.109375 C 65.5 140.179688 65.183594 139.226562 64.8125 138.296875 C 64.382812 137.269531 63.898438 136.226562 63.582031 135.136719 Z M 64.136719 135.796875 C 64.429688 136.605469 64.785156 137.386719 65.101562 138.171875 C 65.484375 139.097656 65.800781 140.050781 66.148438 140.996094 C 67.054688 143.4375 67.914062 145.898438 68.78125 148.34375 C 68.742188 148.085938 68.703125 147.84375 68.660156 147.589844 C 68.421875 146.089844 67.980469 144.597656 67.640625 143.109375 C 67.296875 141.597656 67.007812 140.046875 66.238281 138.726562 C 65.796875 138.191406 65.371094 137.652344 64.972656 137.082031 C 64.695312 136.660156 64.40625 136.246094 64.136719 135.796875 Z M 79.21875 144.328125 C 79.203125 144.359375 79.191406 144.371094 79.171875 144.402344 C 79.101562 144.542969 79.035156 144.695312 78.960938 144.835938 C 78.953125 144.851562 78.945312 144.867188 78.933594 144.878906 C 78.925781 144.90625 78.921875 144.933594 78.910156 144.949219 C 79.046875 144.753906 79.183594 144.574219 79.335938 144.394531 C 79.308594 144.386719 79.28125 144.378906 79.253906 144.371094 C 79.242188 144.363281 79.226562 144.351562 79.21875 144.328125 Z M 86.183594 131.523438 C 84.789062 132.976562 83.449219 134.441406 82.339844 136.160156 C 81.460938 137.539062 80.886719 139.160156 80.269531 140.660156 C 79.882812 141.621094 79.515625 142.617188 79.171875 143.621094 L 79.199219 143.566406 C 79.578125 142.804688 79.988281 142.066406 80.398438 141.324219 C 80.648438 140.84375 80.914062 140.359375 81.164062 139.878906 C 82.367188 137.589844 83.40625 135.367188 84.894531 133.242188 C 85.304688 132.679688 85.738281 132.097656 86.183594 131.523438 Z M 93.25 126.738281 C 91.851562 130.128906 89.808594 133.214844 87.355469 135.957031 C 85.824219 137.652344 84.230469 139.335938 82.640625 140.976562 C 82.089844 141.535156 81.53125 142.105469 81.03125 142.714844 C 81.320312 142.464844 81.621094 142.226562 81.925781 141.996094 C 82.195312 141.738281 82.46875 141.480469 82.742188 141.222656 C 84.929688 139.238281 86.914062 137.03125 88.773438 134.753906 C 89.773438 133.523438 90.890625 132.316406 91.652344 130.925781 C 92.046875 130.035156 92.40625 129.128906 92.757812 128.226562 C 92.929688 127.722656 93.089844 127.238281 93.25 126.738281 Z M 92.292969 128.058594 C 90.488281 131.058594 88.054688 133.671875 85.667969 136.300781 C 84.214844 137.890625 82.902344 139.664062 81.636719 141.402344 C 81.441406 141.671875 81.242188 141.925781 81.035156 142.199219 C 81.472656 141.703125 81.9375 141.226562 82.402344 140.75 C 83.996094 139.121094 85.59375 137.4375 87.121094 135.742188 C 89.1875 133.417969 90.957031 130.84375 92.292969 128.058594 Z M 93.292969 125.445312 C 92.65625 126.320312 91.976562 127.144531 91.3125 128 C 89.59375 130.226562 87.941406 132.460938 86.144531 134.628906 C 84.910156 136.121094 83.652344 137.65625 82.566406 139.257812 C 81.992188 140.109375 81.441406 140.964844 80.882812 141.828125 C 81.039062 141.617188 81.195312 141.410156 81.351562 141.199219 C 82.632812 139.457031 83.941406 137.671875 85.414062 136.066406 C 88.421875 132.789062 91.492188 129.511719 93.292969 125.445312 Z M 93.632812 124.378906 C 92.945312 124.992188 92.238281 125.589844 91.605469 126.277344 C 89.523438 128.582031 87.777344 131.152344 85.9375 133.640625 C 84.074219 136.144531 82.257812 138.757812 80.710938 141.484375 L 80.683594 141.542969 C 81.214844 140.714844 81.753906 139.882812 82.300781 139.0625 C 83.394531 137.449219 84.664062 135.910156 85.894531 134.402344 C 87.691406 132.238281 89.332031 130.003906 91.054688 127.78125 C 91.929688 126.675781 92.851562 125.574219 93.632812 124.378906 Z M 90.601562 133.03125 C 90.085938 133.683594 89.539062 134.3125 89.019531 134.953125 C 87.488281 136.824219 85.871094 138.648438 84.140625 140.335938 C 84.9375 139.75 85.734375 139.128906 86.492188 138.429688 C 88.214844 136.859375 89.523438 135.023438 90.601562 133.03125 Z M 89.417969 128.375 C 89.171875 128.589844 88.929688 128.804688 88.6875 129.019531 C 87.472656 130.421875 86.210938 131.960938 85.175781 133.433594 C 84.238281 134.777344 83.476562 136.171875 82.742188 137.585938 C 83.679688 136.179688 84.671875 134.800781 85.679688 133.441406 C 86.921875 131.757812 88.132812 130.03125 89.417969 128.375 Z M 73.132812 111.117188 C 73.484375 112.726562 73.730469 114.375 73.878906 116.027344 C 74.105469 118.535156 74.210938 121.003906 74.28125 123.542969 C 74.308594 124.632812 74.34375 125.742188 74.496094 126.832031 C 74.582031 125.203125 74.863281 123.558594 74.890625 121.839844 C 74.960938 118.242188 74.375 114.554688 73.132812 111.117188 Z M 68.648438 110.023438 C 68.773438 113.820312 69.539062 117.699219 70.964844 121.109375 C 71.648438 122.738281 72.488281 124.285156 73.332031 125.84375 C 72.761719 124.328125 72.238281 122.804688 71.714844 121.277344 C 70.449219 117.542969 69.234375 113.863281 68.648438 110.023438 Z M 68.695312 107.132812 C 68.695312 107.144531 68.6875 107.160156 68.691406 107.171875 C 68.976562 112.042969 70.46875 116.558594 72.035156 121.171875 C 72.53125 122.640625 73.039062 124.09375 73.585938 125.550781 C 73.5625 125.378906 73.550781 125.207031 73.542969 125.042969 C 73.089844 123.667969 72.558594 122.296875 72.132812 120.925781 C 71.085938 117.574219 70.253906 114.175781 69.445312 110.75 C 69.132812 109.445312 68.863281 108.292969 68.695312 107.132812 Z M 72.011719 108.433594 C 72.671875 111.503906 73.042969 114.632812 73.230469 117.726562 C 73.332031 119.402344 73.730469 121.21875 73.792969 122.902344 C 73.804688 123.316406 73.816406 123.714844 73.820312 124.105469 C 73.878906 124.371094 73.933594 124.636719 74 124.898438 C 73.984375 124.449219 73.964844 124.011719 73.957031 123.558594 C 73.886719 121.019531 73.78125 118.550781 73.558594 116.058594 C 73.34375 113.601562 72.910156 111.199219 72.199219 108.835938 C 72.152344 108.742188 72.125 108.660156 72.082031 108.582031 C 72.058594 108.535156 72.035156 108.480469 72.011719 108.433594 Z M 69.363281 100.890625 C 69.324219 105.527344 70.257812 110.199219 71.304688 114.671875 C 71.871094 117.132812 72.421875 119.554688 73.085938 121.984375 C 73.054688 121.839844 73.039062 121.703125 73.007812 121.558594 C 72.566406 119.285156 72.167969 117.042969 71.824219 114.75 C 71.210938 110.589844 70.160156 105.074219 69.363281 100.890625 Z M 70.230469 103.6875 C 70.914062 107.332031 71.664062 111.4375 72.152344 114.707031 C 72.496094 116.988281 72.894531 119.230469 73.332031 121.492188 C 73.355469 121.585938 73.375 121.683594 73.394531 121.78125 C 73.25 120.4375 72.992188 119.035156 72.917969 117.726562 C 72.691406 114.027344 72.191406 110.230469 71.246094 106.59375 C 70.875 105.652344 70.539062 104.667969 70.230469 103.6875 Z M 69.082031 102.824219 C 68.988281 103.699219 68.921875 104.570312 68.828125 105.445312 C 68.960938 107.214844 69.316406 108.773438 69.765625 110.65625 C 70.558594 114.011719 71.367188 117.351562 72.386719 120.632812 C 71.882812 118.675781 71.433594 116.71875 70.976562 114.742188 C 70.085938 110.878906 69.261719 106.835938 69.082031 102.824219 Z M 69.082031 102.824219 " fill-opacity="1" fill-rule="evenodd"/></g></g></g><g clip-path="url(#81ea350001)"><g clip-path="url(#5b2b265711)"><g clip-path="url(#94d041855e)"><path fill="#3516c8" d="M 333.578125 260.988281 C 325.613281 260.753906 317.714844 258.398438 311 254.03125 C 309.402344 252.984375 307.851562 251.8125 306.339844 250.683594 C 304.132812 249.03125 301.804688 247.296875 299.339844 245.972656 C 299.09375 245.839844 298.847656 245.707031 298.558594 245.574219 C 297.367188 244.957031 296.175781 244.335938 295.203125 243.390625 C 293.253906 244.417969 290.945312 244.8125 288.867188 244.585938 C 285.496094 244.234375 282.414062 242.6875 279.453125 241.179688 C 278.878906 240.871094 278.300781 240.605469 277.726562 240.339844 C 274.597656 238.828125 270.472656 237.207031 266.605469 238.136719 C 265.347656 238.433594 264.078125 239.066406 262.851562 239.613281 C 260.777344 240.597656 258.664062 241.578125 256.335938 241.300781 C 255.417969 241.191406 254.761719 240.882812 254.402344 240.328125 L 253.75 241.226562 C 253.621094 241.390625 253.410156 241.425781 253.246094 241.335938 C 253.207031 241.292969 253.125 241.25 253.082031 241.207031 C 252.726562 242.03125 252.285156 242.8125 251.84375 243.59375 C 247.109375 251.546875 236.964844 256.011719 227.753906 254.242188 C 225.386719 253.796875 223.074219 252.976562 220.847656 252.164062 C 216.921875 250.753906 213.246094 249.4375 209.3125 249.90625 C 207.46875 250.105469 205.660156 250.71875 203.886719 251.335938 C 202.707031 251.71875 201.488281 252.140625 200.269531 252.441406 C 196.152344 253.40625 191.738281 253.109375 187.820312 251.535156 C 186.128906 250.863281 184.652344 249.984375 183.386719 248.945312 C 173.585938 254.585938 161.414062 255.652344 150.808594 251.589844 C 146.683594 250.007812 142.742188 247.683594 138.929688 245.441406 C 131.832031 241.273438 125.105469 237.324219 117.332031 237.679688 C 113.988281 237.835938 110.707031 238.824219 107.546875 239.816406 C 104.9375 240.617188 102.285156 241.417969 99.5625 241.796875 C 93.15625 242.652344 85.5625 239.804688 84.445312 233.679688 C 84.410156 233.46875 84.542969 233.222656 84.792969 233.1875 C 85.003906 233.152344 85.25 233.285156 85.285156 233.539062 C 86.289062 239.199219 93.429688 241.785156 99.460938 240.957031 C 102.144531 240.578125 104.753906 239.777344 107.320312 239.015625 C 110.5625 238.027344 113.886719 237.039062 117.316406 236.847656 C 125.335938 236.496094 132.476562 240.667969 139.367188 244.746094 C 143.140625 246.984375 147.078125 249.269531 151.121094 250.847656 C 161.398438 254.773438 173.234375 253.785156 182.777344 248.386719 C 181.84375 247.484375 181.082031 246.417969 180.53125 245.316406 C 178.996094 242.101562 179.652344 238.15625 182.050781 236.097656 C 183.375 234.96875 185.394531 234.484375 187.21875 234.914062 C 188.875 235.296875 190.140625 236.292969 190.765625 237.644531 C 192.332031 241.195312 189.300781 244.988281 186.191406 247.191406 C 185.511719 247.671875 184.832031 248.113281 184.148438 248.550781 C 185.25 249.460938 186.605469 250.207031 188.089844 250.835938 C 191.84375 252.320312 196.089844 252.652344 200.039062 251.683594 C 201.257812 251.386719 202.4375 251 203.617188 250.617188 C 205.429688 250.003906 207.28125 249.390625 209.207031 249.152344 C 213.3125 248.6875 217.277344 250.097656 221.117188 251.460938 C 223.347656 252.234375 225.617188 253.050781 227.898438 253.492188 C 236.777344 255.210938 246.5 250.90625 251.105469 243.238281 C 252.992188 240.035156 254.054688 236.4375 255.074219 232.921875 L 260.125 215.667969 C 259.960938 215.582031 259.882812 215.371094 259.929688 215.164062 C 260.023438 214.914062 260.113281 214.667969 260.203125 214.417969 C 260.207031 214.335938 260.207031 214.292969 260.25 214.210938 C 260.253906 214.171875 260.296875 214.128906 260.335938 214.132812 C 266.136719 198.320312 272.972656 182.703125 280.628906 167.699219 C 280.5 167.777344 280.332031 167.816406 280.167969 167.726562 C 279.960938 167.636719 279.886719 167.382812 279.976562 167.179688 C 286.800781 151.9375 294.828125 137.027344 303.75 122.933594 C 303.796875 122.808594 303.921875 122.769531 304.046875 122.734375 C 304.175781 122.695312 304.296875 122.738281 304.378906 122.824219 C 304.542969 122.957031 304.703125 123.128906 304.910156 123.257812 C 306.992188 119.0625 309.035156 114.824219 310.992188 110.582031 C 311.082031 110.378906 311.335938 110.300781 311.542969 110.347656 C 314.144531 111.34375 316.78125 112.421875 319.273438 114.246094 C 319.4375 114.375 319.472656 114.542969 319.425781 114.710938 C 318.699219 116.816406 317.886719 118.921875 317.035156 120.980469 C 317.117188 120.984375 317.199219 121.027344 317.28125 121.074219 L 319.113281 121.210938 C 319.238281 121.210938 319.359375 121.300781 319.441406 121.425781 C 319.519531 121.554688 319.515625 121.679688 319.472656 121.804688 C 319.203125 122.421875 318.9375 123 318.667969 123.617188 C 318.617188 123.988281 318.5625 124.363281 318.46875 124.738281 C 317.011719 130.410156 314.230469 135.671875 311.535156 140.765625 C 311.40625 140.972656 311.3125 141.21875 311.183594 141.421875 C 309.648438 145.34375 308.15625 149.304688 306.710938 153.226562 L 306.707031 153.269531 C 306.074219 155.003906 305.4375 156.820312 304.226562 158.285156 C 303.878906 158.695312 303.449219 159.140625 302.980469 159.5 C 302.164062 160.355469 300.976562 160.945312 299.769531 160.828125 L 294.738281 171.820312 C 294.648438 172.027344 294.394531 172.101562 294.1875 172.015625 L 294.023438 171.925781 L 270.140625 217.003906 C 270.140625 217.003906 270.097656 217.042969 270.097656 217.042969 C 270.011719 217.125 269.925781 217.246094 269.882812 217.328125 L 270.460938 217.554688 C 270.582031 217.601562 270.664062 217.726562 270.703125 217.855469 C 270.738281 217.980469 270.691406 218.144531 270.605469 218.226562 C 270.5625 218.308594 270.476562 218.347656 270.433594 218.429688 C 270.433594 218.429688 270.433594 218.472656 270.433594 218.472656 C 270.472656 218.597656 270.46875 218.722656 270.378906 218.847656 L 255.050781 239.554688 C 255.089844 239.640625 255.128906 239.722656 255.167969 239.808594 C 255.449219 240.234375 256.070312 240.375 256.527344 240.433594 C 258.605469 240.699219 260.550781 239.757812 262.582031 238.8125 C 263.851562 238.222656 265.164062 237.59375 266.507812 237.257812 C 270.667969 236.253906 274.917969 237.921875 278.167969 239.515625 C 278.742188 239.785156 279.316406 240.09375 279.894531 240.402344 C 282.8125 241.863281 285.816406 243.367188 289.019531 243.710938 C 290.890625 243.890625 292.984375 243.578125 294.722656 242.710938 C 293.675781 241.300781 293.238281 239.246094 294.40625 237.777344 C 295.183594 236.796875 296.523438 236.710938 297.472656 237.03125 C 298.421875 237.351562 298.988281 238.078125 299.003906 238.953125 C 299 238.996094 299 239.039062 299 239.078125 C 298.492188 240.734375 297.410156 242.035156 296.050781 242.914062 C 296.902344 243.691406 297.972656 244.265625 299.042969 244.796875 C 299.289062 244.929688 299.578125 245.0625 299.824219 245.195312 C 302.328125 246.5625 304.65625 248.296875 306.902344 249.988281 C 308.371094 251.117188 309.925781 252.246094 311.519531 253.292969 C 322.863281 260.675781 337.714844 262.191406 350.332031 257.261719 C 350.542969 257.183594 350.792969 257.273438 350.871094 257.484375 C 350.945312 257.695312 350.855469 257.941406 350.644531 258.019531 C 345.160156 260.195312 339.371094 261.15625 333.578125 260.988281 Z M 186.027344 235.589844 C 184.777344 235.550781 183.515625 235.933594 182.617188 236.699219 C 180.519531 238.515625 179.917969 242.042969 181.292969 244.921875 C 181.804688 245.980469 182.566406 247.003906 183.542969 247.90625 C 184.308594 247.472656 185.03125 246.949219 185.753906 246.46875 C 188.566406 244.464844 191.417969 241.042969 190.050781 237.957031 C 189.539062 236.816406 188.480469 235.992188 187.070312 235.703125 C 186.738281 235.648438 186.363281 235.597656 186.027344 235.589844 Z M 296.492188 237.710938 C 295.953125 237.695312 295.363281 237.886719 295.015625 238.296875 C 294.105469 239.4375 294.515625 241.160156 295.402344 242.3125 C 296.675781 241.515625 297.667969 240.375 298.128906 238.886719 C 298.066406 238.21875 297.449219 237.90625 297.160156 237.816406 C 296.992188 237.769531 296.742188 237.71875 296.492188 237.710938 Z M 257.730469 233.414062 C 256.3125 234.875 255.183594 236.429688 254.921875 238.257812 L 255.3125 237.726562 C 255.191406 237.597656 255.15625 237.386719 255.285156 237.226562 C 255.546875 236.855469 255.765625 236.445312 256.027344 236.078125 C 256.59375 235.21875 257.164062 234.316406 257.730469 233.414062 Z M 256.023438 233.324219 L 255.695312 234.523438 C 256.609375 233.257812 257.8125 232.125 258.96875 231.074219 C 259.226562 230.832031 259.527344 230.546875 259.785156 230.304688 C 262.140625 226.699219 264.582031 223.058594 267.148438 219.542969 C 267.328125 219.132812 267.507812 218.679688 267.644531 218.265625 C 267.191406 218.085938 266.734375 217.90625 266.28125 217.726562 C 265.769531 218.085938 265.296875 218.613281 264.949219 219.0625 C 262.207031 222.949219 259.628906 227.046875 257.335938 231.234375 C 257.027344 231.851562 256.671875 232.507812 256.320312 233.125 C 256.234375 233.246094 256.148438 233.328125 256.023438 233.324219 Z M 260.25 218.507812 L 256.949219 230.179688 C 258.683594 226.515625 259.800781 222.585938 260.25 218.507812 Z M 261.25 215.785156 C 261.148438 219.160156 260.59375 222.523438 259.539062 225.75 C 261.027344 223.332031 262.601562 220.914062 264.253906 218.585938 C 264.558594 218.175781 264.945312 217.726562 265.417969 217.324219 C 264.554688 216.925781 263.691406 216.480469 262.828125 216.039062 C 262.328125 215.941406 261.789062 215.84375 261.25 215.785156 Z M 267.886719 219.984375 C 267.839844 220.066406 267.796875 220.148438 267.796875 220.230469 C 268.183594 219.742188 268.617188 219.253906 269.046875 218.765625 C 268.964844 218.761719 268.921875 218.71875 268.839844 218.675781 C 268.496094 219.125 268.191406 219.574219 267.886719 219.984375 Z M 268.804688 217.046875 L 268.972656 217.09375 C 269.101562 216.929688 269.1875 216.765625 269.320312 216.605469 L 293.15625 171.609375 L 292.457031 171.296875 C 284.628906 186.546875 276.511719 201.667969 268.234375 216.570312 C 268.398438 216.660156 268.5625 216.75 268.726562 216.921875 C 268.765625 216.964844 268.808594 217.007812 268.804688 217.046875 Z M 261.460938 214.207031 L 267.277344 216.460938 C 267.320312 216.460938 267.320312 216.460938 267.363281 216.464844 C 275.683594 201.515625 283.800781 186.355469 291.671875 171.023438 L 283.429688 167.488281 C 275.5625 182.65625 268.183594 198.253906 261.386719 213.910156 C 261.464844 214.039062 261.464844 214.121094 261.460938 214.207031 Z M 281.988281 166.859375 C 276.636719 177.304688 271.695312 188.007812 267.203125 198.894531 C 272.105469 188.1875 277.296875 177.574219 282.6875 167.132812 Z M 292.851562 170.597656 L 293.554688 170.910156 L 296.378906 165.609375 C 296.042969 165.601562 295.753906 165.59375 295.417969 165.582031 C 294.578125 167.226562 293.734375 168.914062 292.851562 170.597656 Z M 283.828125 166.746094 L 292.070312 170.285156 C 292.910156 168.679688 293.707031 167.078125 294.503906 165.515625 C 291.421875 165.214844 288.359375 164.460938 285.515625 163.207031 C 285.554688 163.292969 285.550781 163.417969 285.503906 163.542969 C 284.976562 164.570312 284.402344 165.679688 283.828125 166.746094 Z M 282.550781 166.210938 L 283.042969 166.433594 C 283.265625 166.023438 283.484375 165.609375 283.707031 165.199219 Z M 284.242188 162.546875 C 283.886719 163.203125 283.535156 163.859375 283.222656 164.519531 L 284.894531 162.980469 C 284.9375 162.941406 284.980469 162.941406 285.023438 162.902344 C 284.734375 162.808594 284.488281 162.679688 284.242188 162.546875 Z M 295.859375 164.761719 C 296.234375 164.773438 296.609375 164.78125 296.984375 164.792969 L 298.855469 160.675781 C 298.652344 160.585938 298.574219 160.375 298.621094 160.167969 C 298.667969 159.960938 298.882812 159.839844 299.089844 159.847656 C 299.132812 159.847656 299.171875 159.851562 299.257812 159.851562 L 311.863281 132.390625 C 306.667969 143.210938 301.304688 153.988281 295.859375 164.761719 Z M 284.433594 161.714844 C 287.679688 163.398438 291.28125 164.378906 294.945312 164.691406 C 301.140625 152.480469 307.210938 140.222656 313.078125 127.917969 C 310.253906 127.378906 307.578125 126.171875 305.25 124.519531 C 298.871094 137.226562 291.917969 149.667969 284.433594 161.714844 Z M 304.269531 123.742188 C 296.570312 135.949219 289.566406 148.722656 283.386719 161.8125 C 291.003906 149.558594 298.128906 136.914062 304.554688 123.957031 C 304.472656 123.914062 304.351562 123.824219 304.269531 123.742188 Z M 314.308594 127.246094 C 314.390625 127.246094 314.433594 127.25 314.515625 127.292969 C 314.640625 127.296875 314.761719 127.382812 314.839844 127.511719 C 314.921875 127.636719 314.917969 127.761719 314.871094 127.886719 L 300.214844 159.878906 C 301.011719 159.777344 301.773438 159.382812 302.414062 158.941406 C 302.5 158.863281 302.585938 158.738281 302.671875 158.660156 C 303.449219 157.679688 303.820312 156.398438 304.191406 155.15625 L 304.328125 154.699219 C 305.804688 149.945312 308.105469 145.421875 310.441406 141.066406 C 312.785156 135.128906 315.292969 129.234375 317.921875 123.425781 C 317.929688 123.136719 317.898438 122.84375 317.820312 122.589844 C 317.703125 122.292969 317.460938 122.039062 317.175781 121.902344 L 316.964844 121.898438 C 315.996094 123.664062 315.152344 125.476562 314.308594 127.246094 Z M 307.332031 149.03125 C 306.484375 150.96875 305.675781 152.90625 305.074219 154.929688 L 304.9375 155.386719 C 304.933594 155.429688 304.890625 155.511719 304.890625 155.550781 C 305.246094 154.726562 305.5625 153.859375 305.882812 152.992188 L 305.882812 152.953125 C 306.339844 151.628906 306.835938 150.308594 307.332031 149.03125 Z M 305.605469 123.738281 C 307.890625 125.429688 310.613281 126.59375 313.390625 127.132812 L 315.691406 121.234375 C 315.738281 121.070312 315.910156 120.949219 316.074219 120.953125 C 316.925781 118.890625 317.738281 116.789062 318.46875 114.679688 C 316.261719 113.117188 313.871094 112.128906 311.558594 111.226562 C 309.683594 115.425781 307.6875 119.582031 305.605469 123.738281 Z M 318.382812 121.980469 C 318.378906 122.023438 318.421875 122.066406 318.421875 122.066406 C 318.421875 122.023438 318.464844 122.023438 318.464844 121.984375 Z M 318.382812 121.980469 " fill-opacity="1" fill-rule="nonzero"/></g></g></g><g fill="#1f00b4" fill-opacity="1"><g transform="translate(94.012635, 189.605658)"><g><path d="M 28.359375 -37.46875 L 27.609375 -37.46875 L 13.015625 -19.6875 L 13.015625 -27.859375 C 13.015625 -33.15625 8.703125 -37.46875 3.359375 -37.46875 L 3.359375 -9.625 C 3.359375 -4.3125 7.671875 0 13.015625 0 L 13.015625 -18.578125 L 20.484375 -4.96875 C 22.171875 -1.90625 25.40625 0 28.9375 0 L 35.5625 0 L 19.3125 -26.484375 Z M 28.359375 -37.46875 "/></g></g></g><g fill="#1f00b4" fill-opacity="1"><g transform="translate(127.822131, 189.605658)"><g><path d="M 25.90625 -37.46875 L 25.90625 -20.015625 L 13.015625 -20.015625 L 13.015625 -27.859375 C 13.015625 -33.15625 8.703125 -37.46875 3.359375 -37.46875 L 3.359375 -9.625 C 3.359375 -4.3125 7.671875 0 13.015625 0 L 13.015625 -19.484375 L 25.90625 -19.484375 L 25.90625 -9.625 C 25.90625 -4.3125 30.21875 0 35.53125 0 L 35.53125 -27.859375 C 35.53125 -33.15625 31.21875 -37.46875 25.90625 -37.46875 Z M 25.90625 -37.46875 "/></g></g></g><g fill="#1f00b4" fill-opacity="1"><g transform="translate(164.034836, 189.605658)"><g><path d="M 13.015625 -17.828125 C 15.171875 -17.828125 17.328125 -16.703125 18.40625 -14.421875 L 20.6875 -9.53125 C 23.421875 -3.6875 29.3125 0 35.734375 0 L 17.78125 -38.015625 L 0.53125 0 L 1.15625 0 L 7.625 -14.34375 C 8.671875 -16.671875 10.859375 -17.828125 13.015625 -17.828125 Z M 13.015625 -17.828125 "/></g></g></g><g fill="#1f00b4" fill-opacity="1"><g transform="translate(197.678583, 189.605658)"><g><path d="M 35.859375 -37.46875 L 35.03125 -37.46875 L 22.84375 -18.359375 L 14.59375 -32.671875 C 12.84375 -35.65625 9.65625 -37.46875 6.21875 -37.46875 L 0.53125 -37.46875 L 13.6875 -16.875 L 13.6875 -9.625 C 13.6875 -4.3125 17.984375 0 23.296875 0 L 23.296875 -17.78125 Z M 35.859375 -37.46875 "/></g></g></g><g fill="#1f00b4" fill-opacity="1"><g transform="translate(231.405191, 189.605658)"><g><path d="M 24.75 -14.875 L 23.21875 -14.875 C 21.390625 -14.875 19.734375 -15.921875 18.9375 -17.53125 C 28.640625 -17.65625 33.953125 -22.421875 33.953125 -27.53125 C 33.953125 -32.671875 28.484375 -37.46875 18.578125 -37.46875 L 3.359375 -37.46875 L 3.359375 -9.625 C 3.359375 -4.3125 7.703125 0 13.015625 0 L 13.015625 -17.53125 L 18.328125 -17.53125 L 24.078125 -4.765625 C 25.40625 -1.859375 28.265625 0 31.5 0 L 36.6875 0 L 32.171875 -10.078125 C 30.84375 -13.015625 27.9375 -14.875 24.75 -14.875 Z M 13.015625 -36.9375 L 15.921875 -36.9375 C 22.015625 -36.9375 23.796875 -32.09375 23.796875 -27.53125 C 23.796875 -22.96875 22.015625 -18.078125 15.921875 -18.078125 L 13.015625 -18.078125 Z M 13.015625 -36.9375 "/></g></g></g><g fill="#3516c8" fill-opacity="1"><g transform="translate(111.002946, 207.767918)"><g><path d="M 1.46875 -10.921875 L 2.609375 -10.921875 L 2.609375 0 L 1.46875 0 Z M 1.46875 -10.921875 "/></g></g></g><g fill="#3516c8" fill-opacity="1"><g transform="translate(119.979113, 207.767918)"><g><path d="M 1.46875 -10.921875 L 2.609375 -10.921875 L 2.609375 -1.0625 L 7.015625 -1.0625 L 7.015625 0 L 1.46875 0 Z M 1.46875 -10.921875 "/></g></g></g><g fill="#3516c8" fill-opacity="1"><g transform="translate(132.627378, 207.767918)"><g><path d="M 1.46875 -10.921875 L 2.609375 -10.921875 L 2.609375 -1.0625 L 7.015625 -1.0625 L 7.015625 0 L 1.46875 0 Z M 1.46875 -10.921875 "/></g></g></g><g fill="#3516c8" fill-opacity="1"><g transform="translate(145.275643, 207.767918)"><g><path d="M 5.3125 0.15625 C 4.726562 0.15625 4.191406 0.046875 3.703125 -0.171875 C 3.222656 -0.390625 2.8125 -0.703125 2.46875 -1.109375 C 2.125 -1.515625 1.859375 -2 1.671875 -2.5625 C 1.484375 -3.125 1.390625 -3.75 1.390625 -4.4375 L 1.390625 -10.921875 L 2.53125 -10.921875 L 2.53125 -4.53125 C 2.53125 -3.988281 2.597656 -3.488281 2.734375 -3.03125 C 2.867188 -2.582031 3.0625 -2.203125 3.3125 -1.890625 C 3.5625 -1.578125 3.863281 -1.332031 4.21875 -1.15625 C 4.570312 -0.976562 4.96875 -0.890625 5.40625 -0.890625 C 5.832031 -0.890625 6.222656 -0.976562 6.578125 -1.15625 C 6.929688 -1.332031 7.234375 -1.578125 7.484375 -1.890625 C 7.734375 -2.203125 7.925781 -2.582031 8.0625 -3.03125 C 8.195312 -3.488281 8.265625 -3.988281 8.265625 -4.53125 L 8.265625 -10.921875 L 9.375 -10.921875 L 9.375 -4.4375 C 9.375 -3.75 9.273438 -3.125 9.078125 -2.5625 C 8.878906 -2 8.597656 -1.515625 8.234375 -1.109375 C 7.878906 -0.703125 7.453125 -0.390625 6.953125 -0.171875 C 6.453125 0.046875 5.90625 0.15625 5.3125 0.15625 Z M 5.3125 0.15625 "/></g></g></g><g fill="#3516c8" fill-opacity="1"><g transform="translate(160.94318, 207.767918)"><g><path d="M 4.09375 0.15625 C 3.351562 0.15625 2.671875 -0.015625 2.046875 -0.359375 C 1.421875 -0.710938 0.898438 -1.222656 0.484375 -1.890625 L 1.375 -2.609375 C 2.132812 -1.453125 3.046875 -0.875 4.109375 -0.875 C 4.753906 -0.875 5.269531 -1.046875 5.65625 -1.390625 C 6.050781 -1.742188 6.25 -2.210938 6.25 -2.796875 C 6.25 -3.296875 6.070312 -3.722656 5.71875 -4.078125 C 5.363281 -4.429688 4.796875 -4.769531 4.015625 -5.09375 C 3.023438 -5.46875 2.304688 -5.910156 1.859375 -6.421875 C 1.421875 -6.929688 1.203125 -7.539062 1.203125 -8.25 C 1.203125 -8.675781 1.269531 -9.0625 1.40625 -9.40625 C 1.550781 -9.757812 1.753906 -10.0625 2.015625 -10.3125 C 2.285156 -10.5625 2.597656 -10.753906 2.953125 -10.890625 C 3.316406 -11.023438 3.722656 -11.09375 4.171875 -11.09375 C 5.421875 -11.09375 6.457031 -10.535156 7.28125 -9.421875 L 6.390625 -8.703125 C 6.066406 -9.160156 5.722656 -9.492188 5.359375 -9.703125 C 4.992188 -9.921875 4.59375 -10.03125 4.15625 -10.03125 C 3.601562 -10.03125 3.160156 -9.878906 2.828125 -9.578125 C 2.503906 -9.273438 2.34375 -8.867188 2.34375 -8.359375 C 2.34375 -7.867188 2.507812 -7.453125 2.84375 -7.109375 C 3.175781 -6.765625 3.726562 -6.441406 4.5 -6.140625 C 5.488281 -5.753906 6.21875 -5.296875 6.6875 -4.765625 C 7.15625 -4.242188 7.390625 -3.617188 7.390625 -2.890625 C 7.390625 -2.441406 7.304688 -2.03125 7.140625 -1.65625 C 6.984375 -1.28125 6.753906 -0.957031 6.453125 -0.6875 C 6.160156 -0.414062 5.8125 -0.207031 5.40625 -0.0625 C 5.007812 0.0820312 4.570312 0.15625 4.09375 0.15625 Z M 4.09375 0.15625 "/></g></g></g><g fill="#3516c8" fill-opacity="1"><g transform="translate(174.048408, 207.767918)"><g><path d="M 4.078125 -9.875 L 0.484375 -9.875 L 0.484375 -10.921875 L 8.8125 -10.921875 L 8.8125 -9.875 L 5.21875 -9.875 L 5.21875 0 L 4.078125 0 Z M 4.078125 -9.875 "/></g></g></g><g fill="#3516c8" fill-opacity="1"><g transform="translate(188.247095, 207.767918)"><g><path d="M 1.46875 -10.921875 L 4.078125 -10.921875 C 4.617188 -10.921875 5.117188 -10.84375 5.578125 -10.6875 C 6.046875 -10.53125 6.445312 -10.304688 6.78125 -10.015625 C 7.113281 -9.734375 7.367188 -9.394531 7.546875 -9 C 7.734375 -8.613281 7.828125 -8.1875 7.828125 -7.71875 C 7.828125 -7.332031 7.765625 -6.972656 7.640625 -6.640625 C 7.523438 -6.316406 7.359375 -6.019531 7.140625 -5.75 C 6.921875 -5.476562 6.660156 -5.25 6.359375 -5.0625 C 6.054688 -4.875 5.722656 -4.726562 5.359375 -4.625 L 8.484375 0 L 7.109375 0 L 4.078125 -4.5 L 2.609375 -4.5 L 2.609375 0 L 1.46875 0 Z M 4.078125 -5.5625 C 4.859375 -5.5625 5.488281 -5.753906 5.96875 -6.140625 C 6.445312 -6.535156 6.6875 -7.066406 6.6875 -7.734375 C 6.6875 -8.378906 6.445312 -8.894531 5.96875 -9.28125 C 5.488281 -9.675781 4.859375 -9.875 4.078125 -9.875 L 2.609375 -9.875 L 2.609375 -5.5625 Z M 4.078125 -5.5625 "/></g></g></g><g fill="#3516c8" fill-opacity="1"><g transform="translate(202.282585, 207.767918)"><g><path d="M 4.65625 -11.25 L 4.96875 -11.25 L 9.140625 0 L 7.875 0 L 6.84375 -2.875 L 2.703125 -2.875 L 1.6875 0 L 0.484375 0 Z M 6.46875 -3.9375 L 4.78125 -8.65625 L 3.078125 -3.9375 Z M 6.46875 -3.9375 "/></g></g></g><g fill="#3516c8" fill-opacity="1"><g transform="translate(216.807685, 207.767918)"><g><path d="M 4.078125 -9.875 L 0.484375 -9.875 L 0.484375 -10.921875 L 8.8125 -10.921875 L 8.8125 -9.875 L 5.21875 -9.875 L 5.21875 0 L 4.078125 0 Z M 4.078125 -9.875 "/></g></g></g><g fill="#3516c8" fill-opacity="1"><g transform="translate(231.006372, 207.767918)"><g><path d="M 1.46875 -10.921875 L 7.09375 -10.921875 L 7.09375 -9.875 L 2.609375 -9.875 L 2.609375 -6.203125 L 6.03125 -6.203125 L 6.03125 -5.140625 L 2.609375 -5.140625 L 2.609375 -1.0625 L 7.171875 -1.0625 L 7.171875 0 L 1.46875 0 Z M 1.46875 -10.921875 "/></g></g></g><g fill="#3516c8" fill-opacity="1"><g transform="translate(244.062645, 207.767918)"><g><path d="M 4.09375 0.15625 C 3.351562 0.15625 2.671875 -0.015625 2.046875 -0.359375 C 1.421875 -0.710938 0.898438 -1.222656 0.484375 -1.890625 L 1.375 -2.609375 C 2.132812 -1.453125 3.046875 -0.875 4.109375 -0.875 C 4.753906 -0.875 5.269531 -1.046875 5.65625 -1.390625 C 6.050781 -1.742188 6.25 -2.210938 6.25 -2.796875 C 6.25 -3.296875 6.070312 -3.722656 5.71875 -4.078125 C 5.363281 -4.429688 4.796875 -4.769531 4.015625 -5.09375 C 3.023438 -5.46875 2.304688 -5.910156 1.859375 -6.421875 C 1.421875 -6.929688 1.203125 -7.539062 1.203125 -8.25 C 1.203125 -8.675781 1.269531 -9.0625 1.40625 -9.40625 C 1.550781 -9.757812 1.753906 -10.0625 2.015625 -10.3125 C 2.285156 -10.5625 2.597656 -10.753906 2.953125 -10.890625 C 3.316406 -11.023438 3.722656 -11.09375 4.171875 -11.09375 C 5.421875 -11.09375 6.457031 -10.535156 7.28125 -9.421875 L 6.390625 -8.703125 C 6.066406 -9.160156 5.722656 -9.492188 5.359375 -9.703125 C 4.992188 -9.921875 4.59375 -10.03125 4.15625 -10.03125 C 3.601562 -10.03125 3.160156 -9.878906 2.828125 -9.578125 C 2.503906 -9.273438 2.34375 -8.867188 2.34375 -8.359375 C 2.34375 -7.867188 2.507812 -7.453125 2.84375 -7.109375 C 3.175781 -6.765625 3.726562 -6.441406 4.5 -6.140625 C 5.488281 -5.753906 6.21875 -5.296875 6.6875 -4.765625 C 7.15625 -4.242188 7.390625 -3.617188 7.390625 -2.890625 C 7.390625 -2.441406 7.304688 -2.03125 7.140625 -1.65625 C 6.984375 -1.28125 6.753906 -0.957031 6.453125 -0.6875 C 6.160156 -0.414062 5.8125 -0.207031 5.40625 -0.0625 C 5.007812 0.0820312 4.570312 0.15625 4.09375 0.15625 Z M 4.09375 0.15625 "/></g></g></g></svg>